<svg id="Capa_1" enable-background="new 0 0 463.997 463.997" height="512" viewBox="0 0 463.997 463.997" width="512" xmlns="http://www.w3.org/2000/svg"><g><g id="Calque_2_4_"><g id="_05-_Graphic_Tablet"><path d="m463.93 117.88-13.15 223.14c-1.137 19.316-16.35 34.832-35.64 36.35-84 6.62-300.75 23.87-364.89 28.98-11.494.913-22.797-3.339-30.84-11.6l-8.43-8.66c-8.232-8.468-12.159-20.224-10.67-31.94l26.37-206.26c2.224-17.448 15.922-31.208 33.36-33.51 77.859-10.27 286.89-37.83 351.469-46.21 12.103-1.568 24.237 2.656 32.75 11.4l8.761 9c7.59 7.805 11.55 18.442 10.91 29.31z" fill="#51518e"/><path d="m463.93 117.88-13.15 223.14c-1.137 19.316-16.35 34.832-35.64 36.35-84 6.62-300.75 23.87-364.89 28.98-11.494.913-22.797-3.339-30.84-11.6l-8.43-8.66c-3.819-3.92-6.761-8.607-8.63-13.75 36.29-2.89 286.79-22.83 378.64-30.07 19.281-1.525 34.485-17.033 35.63-36.34l13.879-235.46c5.186 2.011 9.879 5.115 13.759 9.1l8.761 9c7.591 7.805 11.55 18.442 10.911 29.31z" fill="#3e3e7a"/><path d="m118.777 150.489-20.532 160.638c-1.358 10.613 6.145 20.317 16.758 21.675 1.28.164 2.573.199 3.859.106 57.471-4.168 203.524-14.754 253.354-18.312 9.703-.693 17.386-8.475 17.955-18.186l10.255-173.938c.633-10.68-7.512-19.851-18.193-20.484-1.207-.072-2.419-.03-3.618.125-55.933 7.2-197.038 25.607-243.128 31.62-8.731 1.139-15.595 8.022-16.71 16.756z" fill="#a1edff"/><path d="m97.45 233.527c0 17.31-14.861 31.34-33.191 31.34-13.319 0-24.809-7.41-30.089-18.1-2.041-4.115-3.102-8.647-3.101-13.24 0-17.31 14.861-31.34 33.19-31.34 7.496-.03 14.795 2.397 20.781 6.91 7.75 5.737 12.348 14.788 12.41 24.43z" fill="#d3d3ff"/><g fill="#eeecff"><path d="m88.149 222.36c0 17.3-14.859 31.33-33.189 31.33-7.501.033-14.805-2.398-20.79-6.92-2.041-4.116-3.103-8.649-3.101-13.243 0-17.31 14.861-31.34 33.19-31.34 7.496-.03 14.795 2.397 20.781 6.91 2.05 4.121 3.114 8.661 3.109 13.263z"/><path d="m46.659 153.769-1.863 19.1c-.481 4.922 3.12 9.302 8.042 9.783.541.053 1.087.056 1.629.01l31.425-2.666c4.306-.364 7.738-3.753 8.157-8.054l1.864-19.1c.481-4.923-3.121-9.303-8.044-9.784-.541-.053-1.086-.056-1.627-.01l-31.426 2.666c-4.306.366-7.737 3.754-8.157 8.055z"/><path d="m31.265 295.116-1.863 19.1c-.481 4.923 3.121 9.303 8.044 9.784.541.053 1.086.056 1.627.01l31.426-2.666c4.306-.365 7.738-3.754 8.157-8.055l1.863-19.1c.481-4.923-3.121-9.303-8.044-9.784-.541-.053-1.086-.056-1.627-.01l-31.426 2.666c-4.306.366-7.737 3.754-8.157 8.055z"/></g><path d="m364.759 124.44-145 138.55c-16.809 13.76-63.889 30.5-73.549 20.39-9.891-10.35 7.81-51.72 23.73-72.54.008-.001.015-.004.02-.01l144.98-138.53c18.18-17.36 44.059-19.773 57.819-5.373s10.181 40.153-8 57.513z" fill="#c5c5ff"/><path d="m219.759 262.99c-16.809 13.76-63.889 30.5-73.549 20.39-9.891-10.35 7.81-51.72 23.73-72.54.008-.001.015-.004.02-.01.8-.16 20.629-3.97 37.669 13.87 17.401 18.2 12.13 38.29 12.13 38.29z" fill="#eeecff"/><ellipse cx="237.182" cy="196.469" fill="#3e3e7a" rx="26.397" ry="20.473" transform="matrix(.723 -.691 .691 .723 -70.032 218.261)"/></g></g></g></svg>