<svg height="512" viewBox="0 0 351.925 464" width="512" xmlns="http://www.w3.org/2000/svg"><g id="Calque_2" data-name="Calque 2"><g id="_08-_Earth_Globe" data-name="08- Earth Globe"><path d="m25.881 301.536 254.356-287.436 7.127 17.088-250.719 283.327z" fill="#3e3e7a"/><path d="m240.03 418.71c0 25.01-40.82 45.29-91.17 45.29s-91.17-20.28-91.17-45.29c0-6.12 2.44-11.96 6.88-17.28 13.66-16.44 46.26-28.01 84.29-28.01 41.18 0 75.99 13.57 87.29 32.19a24.944 24.944 0 0 1 3.88 13.1z" fill="#3e3e7a"/><path d="m236.15 405.61c-13.66 16.44-46.26 28.01-84.29 28.01-41.18 0-75.99-13.57-87.29-32.19 13.66-16.44 46.26-28.01 84.29-28.01 41.18 0 75.99 13.57 87.29 32.19z" fill="#51518e"/><path d="m130.087 337.34v66.177c18.771 15.195 37.542 0 37.542 0v-61.783z" fill="#3e3e7a"/><path d="m297.72 161.19a148.927 148.927 0 0 1 -99.13 140.35h-.01a148.925 148.925 0 0 1 -157.4-37.57q-2.31-2.43-4.53-4.97a148.894 148.894 0 0 1 47.21-231.77v-.01a149.286 149.286 0 0 1 118.68-4.92q4.11 1.59 8.1 3.41a148.906 148.906 0 0 1 87.08 135.48z" fill="#6fe1ff"/><path d="m214.55 226.99a149.06 149.06 0 0 1 -61.87 41.85h-.01q-3.4 1.215-6.89 2.25c4.23-23.78-7.13-37.13-21.82-23.42-21.43 19.99-29.69 26.15-43.08-1.63s-44.23 12.96-44.23 12.96a148.894 148.894 0 0 1 47.21-231.77v-.01a149.286 149.286 0 0 1 118.68-4.92s-57.65 15.33-27.38 58.5 3.47 43.67-15.88 57.56 37.31 35.73 21.63 59.05c-13.8 20.53 23.78 12.22 33.64 29.58z" fill="#a1edff"/><path d="m297.72 161.19a148.927 148.927 0 0 1 -99.13 140.35h-.01c-60.4-44.74 19.25-37.14 18.26-65.92a18.422 18.422 0 0 0 -2.29-8.63c-9.86-17.36-47.44-9.05-33.64-29.58 15.68-23.32-40.98-45.16-21.63-59.05s46.15-14.39 15.88-57.56 27.38-58.5 27.38-58.5c.73.28 1.45.57 2.17.86.54.22 1.07.44 1.61.67.16.06.33.13.49.2.55.23 1.11.47 1.66.72.73.31 1.45.63 2.17.96l.01.01a148.872 148.872 0 0 1 87.07 135.47z" fill="#77f945"/><path d="m107.67 152.25c12.41 22.83 3.97 42.18-42.18 30.77s-1.78 30.67-53.24 37.41a149.035 149.035 0 0 1 71.61-193.2s-15.39 35.71 23.81 53.57-2.97 22.33-16.37 32.25 3.97 16.38 16.37 39.2z" fill="#a6ff7b"/><path d="m145.78 271.09c-1.92 10.89-7.13 23.97-16.79 37.64a148.444 148.444 0 0 1 -87.8-44.75l-.01-.01q-2.31-2.43-4.53-4.97s30.83-40.75 44.23-12.96 21.65 21.62 43.08 1.63c14.69-13.71 26.05-.36 21.82 23.42z" fill="#77f945"/><path d="m145.78 271.09a149.3 149.3 0 0 1 -104.59-7.11l-.01-.01q-2.31-2.43-4.53-4.97s30.83-40.75 44.23-12.96 21.65 21.62 43.08 1.63c14.69-13.71 26.05-.36 21.82 23.42z" fill="#a6ff7b"/><path d="m251.81 128.49a148.265 148.265 0 0 1 -37.26 98.5c-9.86-17.36-47.44-9.05-33.64-29.58 15.68-23.32-40.98-45.16-21.63-59.05s46.15-14.39 15.88-57.56 27.38-58.5 27.38-58.5c.73.28 1.45.57 2.17.86.54.22 1.07.44 1.61.67.16.06.33.13.49.2.55.23 1.11.47 1.66.72.73.31 1.45.63 2.17.96l.01.01a148.364 148.364 0 0 1 41.16 102.77z" fill="#a6ff7b"/><path d="m273.559.905a202.722 202.722 0 0 1 78.366 160.28c0 112.151-90.916 203.067-203.067 203.067a202.432 202.432 0 0 1 -143.59-59.477c-8.242-39.015 23.742-27.515 23.742-27.515a166.848 166.848 0 1 0 220.49-249.16s-22.054-34.022 24.059-27.195z" fill="#51518e"/></g></g></svg>