<svg height="512" viewBox="0 0 464 457.126" width="512" xmlns="http://www.w3.org/2000/svg"><g id="Calque_2" data-name="Calque 2"><g id="_43-_Learn" data-name="43- Learn"><path d="m452.863 205.437-95.109-1.9-287.926 71.981-69.828 121.699 11.137 16.527c126.806-31.116 186.37 40.554 186.37 40.554 86.765-41.887 220.279 2.828 220.279 2.828l46.214-235.163z" fill="#3e3e7a"/><path d="m452.863 205.437-46.214 235.163s-122.967-44.579-209.732-2.693c0 0-70.11-71.805-196.917-40.69l58.691-138.225 287.927-71.982z" fill="#51518e"/><path d="m434.47 210.52-47.27 204.05c-83.77-43.08-189.86 0-189.86 0q-7.29-6.165-14.63-11.3c-82.01-57.64-165.91-24.6-165.91-24.6l-11.46-53.86 79.01-180.72c110.46-17.4 163.77 36.23 165.19 37.68l.03.03c78.25-49.03 162.76-19.75 162.76-19.75z" fill="#eeecff"/><path d="m249.57 181.8-53.25 209.43s-5.15 4.76-13.61 12.04c-82.01-57.64-165.91-24.6-165.91-24.6l-11.46-53.86 79.01-180.72c110.46-17.4 163.77 36.23 165.19 37.68z" fill="#d3d3ff"/><path d="m434.47 210.52-47.27 204.05c-83.77-43.08-189.86 0-189.86 0q-7.29-6.165-14.63-11.3c-82.01-57.64-165.91-24.6-165.91-24.6l-11.46-53.86s105.41-31.11 190.98 66.42c0 0 71.8-59.83 173.53-23.33l42.48-205.85z" fill="#c1c1f8"/><g fill="#ffe262"><path d="m308.453 179.771c-9.913-7.4-11.422-22.436-3.453-34.4l52.593-78.971c8.772-13.173 25.476-17.438 36.389-9.293l8.875 6.625c10.913 8.146 11.472 25.3 1.22 37.365l-61.469 72.35c-9.314 10.953-24.242 13.723-34.155 6.324z"/><path d="m246.2 149.431c-12.374-.023-22.654-11.185-23.52-25.539l-5.716-94.73c-.954-15.8 9.8-29.187 23.417-29.162l11.079.021c13.621.025 24.421 13.451 23.527 29.248l-5.363 94.71c-.814 14.351-11.052 25.475-23.424 25.452z"/><path d="m167.065 182.2c-11.3 4.949-25.231-1.152-31.881-13.959l-43.884-84.525c-7.32-14.1-2.979-30.684 9.457-36.132l10.115-4.431c12.436-5.448 27.769 2.519 33.4 17.356l33.773 88.953c5.115 13.478.317 27.785-10.98 32.738z"/></g></g></g></svg>