<svg height="512" viewBox="0 0 464 434.504" width="512" xmlns="http://www.w3.org/2000/svg"><g id="Calque_2" data-name="Calque 2"><g id="_21-_Key" data-name="21- Key"><path d="m343.15 92.944v79.31l-246.4 166.09-69.62-49.21a63.586 63.586 0 0 1 -27.11-50.81l.07-77.424 31.35 1.03 45.22-26.81 48.17-28.56a147.279 147.279 0 0 1 158.12 5.02z" fill="#a4a4f7"/><path d="m96.75 259.044v79.3l-69.62-49.21a63.586 63.586 0 0 1 -27.11-50.81l.07-77.424 31.35 1.03 45.22-26.81c8.76 20.87 15.39 36.92 15.39 36.92z" fill="#8888e8"/><path d="m464 318.754v49.9l-52.14 41.61-18.36-12.76-46.14 37-56.93-44.09v-49.9l6.7-.19-92.94-74.4v-49.9l33.76 8.65z" fill="#d3d3ff"/><path d="m411.86 360.364v49.9l-18.36-12.76v-49.9l15.5-27.78z" fill="#c1c1f8"/><path d="m96.752 259.041-69.623-49.217c-37.965-26.839-35.678-83.886 4.315-107.6l93.386-55.367a147.29 147.29 0 0 1 158.123 5.021l60.2 41.07z" fill="#c5c5ff"/><path d="m204.185 67.646-92.478 20.365-25.374 85.467 104.9-26.374z" fill="#51518e"/><path d="m261.045 177.697-56.86 38.327 132.456 92.057-46.21 32.435 56.926 44.09 46.148-37.005 18.359 12.761 52.136-41.612z" fill="#eeecff"/><g fill="#ffe262"><path d="m312.781 46.971c-14.781-7.981-26.257-23.515-33.573-42.661a5.2 5.2 0 0 0 -10.249 0c-6.774 19.345-18.789 34.68-33.573 42.661a6.561 6.561 0 0 0 -3.443 6.481c0 .032.007.064.012.1a7.756 7.756 0 0 0 3.971 5.8c14.22 7.888 25.831 22.606 32.594 41.132a5.742 5.742 0 0 0 11.127 0c6.763-18.526 18.374-33.244 32.594-41.132a7.759 7.759 0 0 0 3.972-5.8l.011-.1a6.562 6.562 0 0 0 -3.443-6.481z"/><path d="m282.121 306.892c-12.388-6.688-22-19.7-28.131-35.746a4.359 4.359 0 0 0 -8.588 0c-5.676 16.209-15.744 29.058-28.131 35.746a5.5 5.5 0 0 0 -2.885 5.431l.009.08a6.5 6.5 0 0 0 3.328 4.859c11.915 6.609 21.644 18.942 27.311 34.465a4.812 4.812 0 0 0 9.324 0c5.666-15.523 15.395-27.856 27.31-34.465a6.5 6.5 0 0 0 3.332-4.862l.01-.08a5.5 5.5 0 0 0 -2.889-5.428z"/><path d="m83.414 219.078c-12.388-6.687-22-19.7-28.131-35.746a5.409 5.409 0 0 0 -4.313-3.611 5.4 5.4 0 0 0 -4.275 3.611c-5.676 16.209-15.743 29.059-28.131 35.746a5.5 5.5 0 0 0 -2.885 5.431c0 .027.006.053.01.08a6.5 6.5 0 0 0 3.328 4.859c11.915 6.61 21.644 18.942 27.31 34.465a5.441 5.441 0 0 0 4.662 3.622 5.441 5.441 0 0 0 4.662-3.622c5.666-15.523 15.4-27.855 27.311-34.465a6.5 6.5 0 0 0 3.328-4.859l.009-.08a5.5 5.5 0 0 0 -2.885-5.431z"/><path d="m408.248 161.123c-15.346-8.285-27.255-24.41-34.849-44.283a5.4 5.4 0 0 0 -10.639 0c-7.031 20.08-19.5 36-34.848 44.283a6.809 6.809 0 0 0 -3.574 6.727l.012.1a8.052 8.052 0 0 0 4.123 6.02c14.76 8.187 26.812 23.465 33.832 42.694a5.96 5.96 0 0 0 11.55 0c7.02-19.229 19.072-34.507 33.832-42.694a8.054 8.054 0 0 0 4.123-6.02l.012-.1a6.809 6.809 0 0 0 -3.574-6.727z"/></g></g></g></svg>