<svg height="512" viewBox="0 0 464 418.345" width="512" xmlns="http://www.w3.org/2000/svg"><g id="Calque_2" data-name="Calque 2"><g id="_06-_Energy" data-name="06- Energy"><path d="m391.44 184.172-211.45 231.06a9.406 9.406 0 0 1 -15.9-9.22l37.48-116.96a9.406 9.406 0 0 0 -8.96-12.28h-76.64a9.409 9.409 0 0 1 -9.08-11.86l61.14-226.88a9.37 9.37 0 0 1 5-6.03l54.54-26.28a9.314 9.314 0 0 1 4.09-.93h123.13a9.4 9.4 0 0 1 8.45 13.54l-66.75 136.54a9.4 9.4 0 0 0 8.45 13.54h79.56a9.41 9.41 0 0 1 6.94 15.76z" fill="#ffe262"/><g fill="#eeecff"><path d="m326.5 308.893c8-4.934 19.1-1.837 25.4 7.087l41.579 58.892c6.935 9.823 5.346 22.767-3.461 28.2l-7.163 4.417c-8.807 5.432-21.151 1.08-26.891-9.48l-34.409-63.309c-5.214-9.594-3.055-20.873 4.945-25.807z"/><path d="m360.22 262.424c4.586-8.17 15.827-10.845 25.718-6.122l65.284 31.174c10.889 5.2 15.845 17.243 10.8 26.237l-4.106 7.314c-5.048 8.993-17.991 11.177-28.195 4.758l-61.182-38.485c-9.269-5.836-12.905-16.706-8.319-24.876z"/><path d="m127.215 76.4c-5.513 7.613-16.958 8.985-26.186 3.141l-60.902-38.581c-10.158-6.434-13.627-19.005-7.559-27.386l4.932-6.816c6.068-8.38 19.139-9.067 28.474-1.5l55.966 45.391c8.484 6.882 10.788 18.133 5.275 25.751z"/><path d="m113.778 132.212c-1.123 9.3-10.493 16.063-21.438 15.471l-72.24-3.91c-12.048-.652-21.224-9.894-19.988-20.133l1-8.328c1.235-10.239 12.366-17.2 24.247-15.154l71.241 12.242c10.792 1.849 18.3 10.511 17.178 19.812z"/></g><path d="m391.44 184.172-211.45 231.06a9.17 9.17 0 0 1 -11.23 2.03l62.67-84.63 88.96-120.12a9.411 9.411 0 0 0 -7.56-15.01h-72.43a9.413 9.413 0 0 1 -8.46-13.54l66.76-136.54a9.41 9.41 0 0 0 -8.45-13.55h-119.84a9.412 9.412 0 0 1 2.62-1.872l54.54-26.28a9.314 9.314 0 0 1 4.09-.93h123.13a9.4 9.4 0 0 1 8.45 13.54l-66.75 136.54a9.4 9.4 0 0 0 8.45 13.54h79.56a9.41 9.41 0 0 1 6.94 15.762z" fill="#f6d14f"/></g></g></svg>