<svg height="512" viewBox="0 0 464.002 463.997" width="512" xmlns="http://www.w3.org/2000/svg"><g id="Calque_2" data-name="Calque 2"><g id="_37-_Pencil" data-name="37- Pencil"><path d="m415.491 151.446-41.62 42.129-232.25 235.125-93.1 27.239-24.74 7.241c-13.9 4.06-26.69-7.561-23.2-21.091l29.57-114.75 273.87-277.25z" fill="#ffe262"/><path d="m141.621 428.7-93.1 27.239-24.74 7.241c-13.9 4.06-26.69-7.561-23.2-21.091l6.21-24.1 23.36-90.651s20.41 44.94 71.42 79.71a222.524 222.524 0 0 0 40.05 21.652z" fill="#ffebd3"/><path d="m373.871 193.575-232.25 235.125a222.524 222.524 0 0 1 -40.05-21.651c112.6-107.3 215.6-226.22 215.6-226.22s24.3.771 56.7 12.746z" fill="#f6d14f"/><path d="m141.621 428.7-93.1 27.239c17.68-15.68 35.48-32.14 53.05-48.89a222.524 222.524 0 0 0 40.05 21.651z" fill="#ffd5b7"/><path d="m48.521 455.935-24.74 7.241c-13.9 4.06-26.69-7.561-23.2-21.091l6.21-24.1s10.38 24.751 41.73 37.95z" fill="#51518e"/><path d="m407.041 191.2c-21.28 21.54-60.39 20.6-95.6.309a138.164 138.164 0 0 1 -23.99-17.54c-39.75-36.14-50.65-87.03-24.35-113.66s79.85-18.91 119.6 17.23c23.1 21.01 36.45 46.98 38.42 70.28 1.44 16.806-3.06 32.216-14.08 43.381z" fill="#eeecff"/><path d="m407.041 191.2c-21.28 21.54-60.39 20.6-95.6.309 46.45-6.61 31.21-53.809 31.21-53.809s39.41.319 78.47 10.119c1.44 16.806-3.06 32.216-14.08 43.381z" fill="#d3d3ff"/><path d="m456.6 105.045-.05.06a2.119 2.119 0 0 1 -.16.15l-49.49 50.1c-11.8 11.95-34.9 10.47-58.01-1.83a120.326 120.326 0 0 1 -24.25-17.21c-29.41-26.74-40.26-61.57-24.23-77.79l49.69-50.31a4.445 4.445 0 0 1 .33-.309c16.2-15.791 52.73-7.21 81.93 19.349 18.51 16.82 29.66 36.85 31.39 53.43 1.041 9.77-1.209 18.35-7.15 24.36z" fill="#ff9fb3"/><g fill="#ff8293"><path d="m456.6 105.045-.05.06a2.119 2.119 0 0 1 -.16.15l-49.49 50.1c-11.8 11.95-34.9 10.47-58.01-1.83l51.24-56.7s34.65-8.939 63.62-16.14c1.041 9.77-1.209 18.35-7.15 24.36z"/><path d="m456.6 105.045-.05.06a2.119 2.119 0 0 1 -.16.15c-16.1 16.01-52.79 7.45-82.1-19.2-29.41-26.73-40.26-61.56-24.23-77.78l.37-.369c16.2-15.791 52.73-7.21 81.93 19.349 29.411 26.745 40.261 61.57 24.24 77.79z"/></g></g></g></svg>