<svg height="512" viewBox="0 0 463.995 428.139" width="512" xmlns="http://www.w3.org/2000/svg"><g id="Calque_2" data-name="Calque 2"><g id="_01-_Self_Love" data-name="01- Self Love"><path d="m224.921 421.55a144.126 144.126 0 0 1 -18.61-7.83c-244.17-122.85-255.05-358.73-119.07-404.7 72.5-24.51 130.46 5.18 168.77 38.25 5.33 4.59 10.27 9.24 14.82 13.83a392.911 392.911 0 0 1 35.16-19.41c284.48-137.3 139.87 454.81-81.07 379.86z" fill="#ff8293"/><path d="m224.921 421.55c-186.47-128.02-184.74-328.3-60.59-370.27 33.92-11.46 64.65-11.07 91.68-4.01 5.33 4.59 10.27 9.24 14.82 13.83a392.911 392.911 0 0 1 35.16-19.41c284.48-137.3 139.87 454.81-81.07 379.86z" fill="#ff9fb3"/><path d="m308.051 107.74s-13.08-22.32-37.22-46.64a392.911 392.911 0 0 1 35.16-19.41c8.55 41.07 2.06 66.05 2.06 66.05z" fill="#ff8293"/></g></g></svg>