<svg height="512" viewBox="0 0 463.997 443.487" width="512" xmlns="http://www.w3.org/2000/svg"><g id="Calque_2" data-name="Calque 2"><g id="_02-_Health" data-name="02- Health"><path d="m225.8 421.852a144.489 144.489 0 0 1 -19.49-8.13c-244.17-122.85-255.05-358.73-119.07-404.7 71.96-24.33 129.59 4.74 167.91 37.5 5.65 4.84 10.88 9.75 15.68 14.58a377.06 377.06 0 0 1 41.96-22.59c274.981-124.45 131.671 455.82-86.99 383.34z" fill="#ff8293"/><path d="m225.8 421.852c-187.859-127.99-186.429-329.152-61.969-371.22 33.77-11.41 64.38-11.07 91.32-4.11 5.65 4.84 10.88 9.75 15.68 14.58a377.06 377.06 0 0 1 41.96-22.59c274.98-124.45 131.67 455.82-86.991 383.34z" fill="#ff9fb3"/><path d="m312.791 38.512c-3.6 39.25-4.74 69.23-4.74 69.23s-13.08-22.32-37.22-46.64a377.06 377.06 0 0 1 41.96-22.59z" fill="#ff8293"/><path d="m107.867 443.487a19.019 19.019 0 0 1 -18.523-23.309l79.105-340.06a19 19 0 0 1 36.873-.557l51.224 193.529 25.077-116.6a19 19 0 0 1 36.264-2.941l49.372 125.914 54.2-.866a19 19 0 1 1 .607 37.995l-67.379 1.077a19 19 0 0 1 -17.993-12.061l-31.174-79.508-28.486 132.46a19 19 0 0 1 -36.943.867l-51.947-196.26-61.788 265.62a19.01 19.01 0 0 1 -18.489 14.7z" fill="#eeecff"/></g></g></svg>