<svg height="512" viewBox="0 0 395.042 464" width="512" xmlns="http://www.w3.org/2000/svg"><g id="Calque_2" data-name="Calque 2"><g id="_33-_Medal" data-name="33- Medal"><path d="m82.539 54.211 46.262 59.15 81.162 156.563 3.494 6.741v28.596l-39.841 25.348-173.616-231.267z" fill="#a4a4f7"/><path d="m288.631 306.148c-25.382-55.7-86.749-84.491-137.068-64.3-.413.165-.818.341-1.227.512v-.011l-31.647 12.715v10.095c-24.872 28.485-31.062 72.881-12.281 114.1 19.14 42 58.743 68.7 98.64 70.633l3.544 7.666 33.815-13.576v-.009c.356-.137.712-.268 1.067-.41 50.326-20.195 70.539-81.714 45.157-137.415z" fill="#f6d14f"/><ellipse cx="162.636" cy="356.696" fill="#ffe262" rx="97.702" ry="111.246" transform="matrix(.833 -.554 .554 .833 -170.297 149.722)"/><ellipse cx="162.636" cy="356.696" fill="#f6d14f" rx="75.632" ry="86.116" transform="matrix(.833 -.554 .554 .833 -170.297 149.722)"/><path d="m167.633 299.185 11.34 31.732a4.1 4.1 0 0 0 2.667 2.5l36.717 11.483a3.861 3.861 0 0 1 1.56 6.638l-26.736 23.647a3.811 3.811 0 0 0 -1.242 3.662l7.14 33.308c.745 3.472-3.372 6.045-6.5 4.062l-29.429-18.664a4.457 4.457 0 0 0 -4.092-.331l-28.919 12.191c-3.017 1.272-6.35-1.06-5.912-4.137l5.094-35.744a3.779 3.779 0 0 0 -.824-2.922l-23.6-29.117a3.945 3.945 0 0 1 3.3-6.357l30.453-.381a4.268 4.268 0 0 0 3.644-2.054l17.637-30.161a4.333 4.333 0 0 1 7.702.645z" fill="#c5c5ff"/><path d="m395.042 142.34-130.91 154.14c-17.07-27.23-46.2-39.85-46.2-39.85l75.11-125.4-36.67-3.99-256.372-27.9 76.282-99.34 272.65 37.92z" fill="#c5c5ff"/><path d="m327.802 73.2-34.76 58.03-36.67-3.99z" fill="#a4a4f7"/></g></g></svg>