<svg height="512" viewBox="0 0 352.818 464" width="512" xmlns="http://www.w3.org/2000/svg"><g id="Calque_2" data-name="Calque 2"><g id="_48-_Lock" data-name="48- Lock"><path d="m352.817 252.38c-.04 3.47-.12 7.34-.27 11.54a212.883 212.883 0 0 1 -131.66 188.84 148.327 148.327 0 0 1 -56.5 11.24 143.745 143.745 0 0 1 -36.08-4.58 138.952 138.952 0 0 1 -27.02-10.08c-29.45-14.59-59.06-41.8-77.11-91.76-21.21-58.71-25.477-114.26-23.87-157.27a28.068 28.068 0 0 1 17.34-24.87l5.63-2.33 82.43-34.08a28.1 28.1 0 0 1 21.57.05l208.28 87.1a28.128 28.128 0 0 1 17.26 26.2z" fill="#a4a4f7"/><path d="m218.677 414.24s-26.39 49.77-90.37 45.18a138.952 138.952 0 0 1 -27.02-10.08c-29.45-14.59-59.06-41.8-77.11-91.76-21.21-58.71-25.477-114.26-23.87-157.27a28.068 28.068 0 0 1 17.34-24.87l5.63-2.33 76.74 4.95 140.44 97.72s12.21 81.52-21.78 138.46z" fill="#c5c5ff"/><path d="m347.247 235.32-.01.01-96.46 38.46a28.089 28.089 0 0 1 -20.85-.02l-223.71-89.64a28.18 28.18 0 0 1 11.43-8.69l88.06-36.41a28.1 28.1 0 0 1 21.57.05l208.28 87.1a28.163 28.163 0 0 1 11.69 9.14z" fill="#8888e8"/><path d="m292.419 230.563s22.96-166.094-93.794-218.853c-115.404-52.149-150.95 82.558-137.271 154.858 0 0 10.5 19.418 36.516 19.418s35.353-13 35.353-13c-3.567-47.566.359-112.494 44.152-86.046 62.285 37.615 49.909 143.622 49.909 143.622s10.544 13.311 33.26 13.678 31.875-13.677 31.875-13.677z" fill="#ffe262"/><path d="m148.369 310.75c-9.341-21.319-29.509-33.083-45.046-26.274s-20.558 29.609-11.217 50.924a57.159 57.159 0 0 0 5.15 9.311l-8.734 24.929a14.045 14.045 0 0 0 9.417 18.16l28.8 8.18a14.045 14.045 0 0 0 17.691-15.82l-3.438-20.628c12.462-8.652 15.9-29.332 7.377-48.782z" fill="#51518e"/></g></g></svg>