<svg height="512" viewBox="0 0 464 464" width="512" xmlns="http://www.w3.org/2000/svg"><g id="Calque_2" data-name="Calque 2"><g id="_12-_Euro" data-name="12- Euro"><path d="m275.12 0h-86.24c-104.315 0-188.88 103.87-188.88 232s84.565 232 188.88 232h86.24z" fill="#f6d14f"/><ellipse cx="275.12" cy="232" fill="#ffe262" rx="188.88" ry="232"/><ellipse cx="275.12" cy="232" fill="#f6d14f" rx="148.012" ry="181.802"/><path d="m386.309 265.817c-9.272-5.37-20.867-1.3-25.861 9.164-10.271 21.524-27.347 34.768-45.814 35.3-18.817.545-35.732-11.872-46.29-31.5l40.268-.685c8.692-.148 15.7-7.879 15.7-17.269s-7.006-16.971-15.7-16.933l-50.793.223a108.086 108.086 0 0 1 -.088-23.292l50.881.206c8.692.036 15.7-7.548 15.7-16.938s-7.006-17.118-15.7-17.263l-40.759-.68c10.518-20.166 27.667-32.989 46.781-32.436 17.686.512 34.353 12.916 44.7 33.059 5.291 10.3 17 13.976 26.117 8.291 9.053-5.646 12.18-18.441 7.02-28.649-16.962-33.562-45.9-54.648-77.84-56.086-26.7-1.2-52.038 11.1-71.152 34.914a126.964 126.964 0 0 0 -21.379 40.146l-53.37-1.189a17.663 17.663 0 0 0 -17.79 17.912 18.107 18.107 0 0 0 17.79 18.288l46.514.26c-.272 3.752-.425 7.535-.425 11.345q0 6.2.484 12.306l-46.573.282a18.116 18.116 0 0 0 -17.79 18.286 17.656 17.656 0 0 0 17.79 17.906l53.678-1.215a126.668 126.668 0 0 0 21.074 39.189c19.114 23.813 44.456 36.116 71.152 34.914 33.227-1.5 62.767-23.856 79.5-59.482 4.866-10.371 1.381-23.042-7.825-28.374z" fill="#51518e"/></g></g></svg>