<svg height="512" viewBox="0 0 464 414.777" width="512" xmlns="http://www.w3.org/2000/svg"><g id="Calque_2" data-name="Calque 2"><g id="_32-_Id_Card" data-name="32- Id Card"><path d="m464 65.857v216.88a61.67 61.67 0 0 1 -49.19 60.39l-340.67 70.373a61.669 61.669 0 0 1 -74.14-60.393v-258.89a61.672 61.672 0 0 1 55.71-61.38l335.45-32.55a61.706 61.706 0 0 1 44.56 13.29l5.21 4.18a61.772 61.772 0 0 1 23.07 48.1z" fill="#c5c5ff"/><path d="m456.82 37-358.41 35.787a61.669 61.669 0 0 0 -55.54 61.36v277.69a61.673 61.673 0 0 1 -42.87-58.73v-258.89a61.672 61.672 0 0 1 55.71-61.38l335.45-32.55a61.706 61.706 0 0 1 44.56 13.29l5.21 4.18a61.427 61.427 0 0 1 15.89 19.243z" fill="#a4a4f7"/><g fill="#51518e"><path d="m196.255 91.749-84.878 7.356a35.333 35.333 0 0 0 -32.283 35.2v135.981a35.334 35.334 0 0 0 41.481 34.8l84.879-15a35.333 35.333 0 0 0 29.186-34.8v-128.335a35.334 35.334 0 0 0 -38.385-35.202z"/><path d="m267.989 147.492a13.507 13.507 0 0 1 -12.849-12.318 13.729 13.729 0 0 1 11.871-15.2l165.931-18.5a13.428 13.428 0 0 1 14.682 12.242 13.729 13.729 0 0 1 -11.87 15.2l-165.932 18.5a13.009 13.009 0 0 1 -1.833.076z"/><path d="m266.291 204.556a13.508 13.508 0 0 1 -12.849-12.318 13.73 13.73 0 0 1 11.871-15.2l165.932-18.5a13.43 13.43 0 0 1 14.682 12.242 13.73 13.73 0 0 1 -11.871 15.2l-165.932 18.5a13 13 0 0 1 -1.833.076z"/><path d="m264.593 261.62a13.508 13.508 0 0 1 -12.849-12.32 13.73 13.73 0 0 1 11.871-15.2l165.932-18.5a13.431 13.431 0 0 1 14.682 12.242 13.729 13.729 0 0 1 -11.871 15.2l-165.932 18.5a13 13 0 0 1 -1.833.078z"/></g></g></g></svg>