<svg height="512" viewBox="0 0 371.858 463.996" width="512" xmlns="http://www.w3.org/2000/svg"><g id="Calque_2" data-name="Calque 2"><g id="_05-_Toxic" data-name="05- Toxic"><path d="m266.888 268.6s-26.45 63.93-57.77 0c0 0-54.759 72.99-73.56-5.33-60.449-17.84-104.04-68.5-104.04-128.21 0-31.4 12.051-60.29 32.27-83.22 27.821-31.56 71.1-51.84 119.712-51.84 83.94 0 151.991 60.47 151.991 135.06-.002 0 11.788 218.35-68.603 133.54z" fill="#eeecff"/><path d="m135.558 263.27c-60.449-17.84-104.04-68.5-104.04-128.21 0-31.4 12.051-60.29 32.27-83.22-5.409 47.97 23.37 66.56 23.37 66.56-29.89 80.66 42.181 79.72 42.181 79.72.23 28.65 2.54 49.81 6.219 65.15z" fill="#d3d3ff"/><path d="m209.5 120.62c0 32.22-22.1 58.34-49.36 58.34a41.684 41.684 0 0 1 -9.109-1c-22.911-5.04-40.25-28.8-40.25-57.34s17.339-52.3 40.25-57.34a41.684 41.684 0 0 1 9.109-1c27.26 0 49.36 26.12 49.36 58.34z" fill="#3e3e7a"/><ellipse cx="151.029" cy="120.62" fill="#51518e" rx="40.25" ry="57.34"/><path d="m313.719 120.62c0 28.19-19.34 51.04-43.19 51.04a37.139 37.139 0 0 1 -9.8-1.32c-19.13-5.25-33.38-25.52-33.38-49.72s14.25-44.47 33.38-49.72a37.139 37.139 0 0 1 9.8-1.32c23.85 0 43.19 22.85 43.19 51.04z" fill="#3e3e7a"/><path d="m294.118 120.62c0 24.2-14.259 44.47-33.39 49.72-19.13-5.25-33.38-25.52-33.38-49.72s14.25-44.47 33.38-49.72c19.131 5.25 33.39 25.52 33.39 49.72z" fill="#51518e"/><path d="m230.458 217.981s19.205 16.938 24.892-1.554-21.832-59.5-42.535-22.511 9.907 36.06 17.643 24.065z" fill="#51518e"/><path d="m344.929 390.83c8.669 12.59 20.66 34.84 12.41 52.5a23.131 23.131 0 0 1 -4.339 6.14c-19.17 20.08-79.7 28.66-80.989-37.71l-174.453-21.69c-3.71 18.9-17.6 58.02-68.5 46.01-8.92-2.1-15.42-5.72-19.969-10.4-18.551-19.06-4.951-55.78 7.549-80.2 0 0-.14-.23-.429-.65-23.29-35.4-21.51-79.76 25.97-74.93 43.41 4.41 54.68 30.75 57.27 48.52l169.04 36.34c6.379-23.28 24.2-57.37 72.339-29.97 48.681 27.7 32.21 54.33 4.101 66.04z" fill="#eeecff"/><g fill="#d3d3ff"><path d="m54.969 379.32s-46.34 13.43-45.88 46.36c-18.551-19.06-4.951-55.78 7.549-80.2 9.311 13.93 22.51 26.4 38.331 33.84z"/><path d="m357.339 443.33a23.131 23.131 0 0 1 -4.339 6.14c-.369-34.96-45.77-52.83-45.77-52.83 11.971 1.4 25.87-.88 37.7-5.81 8.67 12.59 20.659 34.84 12.409 52.5z"/></g></g></g></svg>